<mxfile host="Electron" modified="2024-05-23T23:11:34.157Z" agent="Mozilla/5.0 (Windows NT 10.0; Win64; x64) AppleWebKit/537.36 (KHTML, like Gecko) draw.io/24.4.6 Chrome/124.0.6367.207 Electron/30.0.6 Safari/537.36" etag="2PWXGZOFhlCS3KHB0_0F" version="24.4.6" type="device">
  <diagram id="C5RBs43oDa-KdzZeNtuy" name="Page-1">
    <mxGraphModel dx="2516" dy="1189" grid="1" gridSize="10" guides="1" tooltips="1" connect="1" arrows="1" fold="1" page="1" pageScale="1" pageWidth="827" pageHeight="1169" math="0" shadow="0">
      <root>
        <mxCell id="WIyWlLk6GJQsqaUBKTNV-0" />
        <mxCell id="WIyWlLk6GJQsqaUBKTNV-1" parent="WIyWlLk6GJQsqaUBKTNV-0" />
        <mxCell id="OZyLh_7TDP40KG8LGGOV-2" value="Client calls into support for PRP" style="shape=step;perimeter=stepPerimeter;whiteSpace=wrap;html=1;fixedSize=1;fillColor=#606E42;strokeColor=#36393d;rounded=1;" parent="WIyWlLk6GJQsqaUBKTNV-1" vertex="1">
          <mxGeometry x="-80" y="400" width="120" height="90" as="geometry" />
        </mxCell>
        <mxCell id="OZyLh_7TDP40KG8LGGOV-21" value="" style="edgeStyle=orthogonalEdgeStyle;rounded=0;orthogonalLoop=1;jettySize=auto;html=1;" parent="WIyWlLk6GJQsqaUBKTNV-1" source="OZyLh_7TDP40KG8LGGOV-31" target="OZyLh_7TDP40KG8LGGOV-20" edge="1">
          <mxGeometry relative="1" as="geometry">
            <mxPoint x="590" y="190" as="sourcePoint" />
          </mxGeometry>
        </mxCell>
        <mxCell id="OZyLh_7TDP40KG8LGGOV-3" value="&quot;Unable to login&quot;, LS error" style="rounded=1;whiteSpace=wrap;html=1;fillColor=#60a917;strokeColor=#2D7600;fontColor=#ffffff;" parent="WIyWlLk6GJQsqaUBKTNV-1" vertex="1">
          <mxGeometry x="150" y="160" width="130" height="60" as="geometry" />
        </mxCell>
        <mxCell id="OZyLh_7TDP40KG8LGGOV-60" value="" style="edgeStyle=orthogonalEdgeStyle;rounded=0;orthogonalLoop=1;jettySize=auto;html=1;" parent="WIyWlLk6GJQsqaUBKTNV-1" source="OZyLh_7TDP40KG8LGGOV-5" target="OZyLh_7TDP40KG8LGGOV-59" edge="1">
          <mxGeometry relative="1" as="geometry" />
        </mxCell>
        <mxCell id="OZyLh_7TDP40KG8LGGOV-5" value="Account suspended" style="whiteSpace=wrap;html=1;fillColor=#60a917;strokeColor=#2D7600;fontColor=#ffffff;rounded=1;" parent="WIyWlLk6GJQsqaUBKTNV-1" vertex="1">
          <mxGeometry x="150" y="320" width="130" height="60" as="geometry" />
        </mxCell>
        <mxCell id="OZyLh_7TDP40KG8LGGOV-62" value="" style="edgeStyle=orthogonalEdgeStyle;rounded=0;orthogonalLoop=1;jettySize=auto;html=1;" parent="WIyWlLk6GJQsqaUBKTNV-1" source="OZyLh_7TDP40KG8LGGOV-8" target="OZyLh_7TDP40KG8LGGOV-61" edge="1">
          <mxGeometry relative="1" as="geometry" />
        </mxCell>
        <mxCell id="OZyLh_7TDP40KG8LGGOV-8" value="Information about payments made to ADP" style="whiteSpace=wrap;html=1;fillColor=#60a917;strokeColor=#2D7600;fontColor=#ffffff;rounded=1;" parent="WIyWlLk6GJQsqaUBKTNV-1" vertex="1">
          <mxGeometry x="150" y="390" width="130" height="60" as="geometry" />
        </mxCell>
        <mxCell id="OZyLh_7TDP40KG8LGGOV-74" value="" style="edgeStyle=orthogonalEdgeStyle;rounded=0;orthogonalLoop=1;jettySize=auto;html=1;" parent="WIyWlLk6GJQsqaUBKTNV-1" source="OZyLh_7TDP40KG8LGGOV-12" target="OZyLh_7TDP40KG8LGGOV-73" edge="1">
          <mxGeometry relative="1" as="geometry" />
        </mxCell>
        <mxCell id="OZyLh_7TDP40KG8LGGOV-12" value="Amendments to W-2" style="whiteSpace=wrap;html=1;fillColor=#60a917;strokeColor=#2D7600;fontColor=#ffffff;rounded=1;" parent="WIyWlLk6GJQsqaUBKTNV-1" vertex="1">
          <mxGeometry x="150" y="460" width="130" height="60" as="geometry" />
        </mxCell>
        <mxCell id="OZyLh_7TDP40KG8LGGOV-87" value="" style="edgeStyle=orthogonalEdgeStyle;rounded=0;orthogonalLoop=1;jettySize=auto;html=1;" parent="WIyWlLk6GJQsqaUBKTNV-1" source="OZyLh_7TDP40KG8LGGOV-14" target="OZyLh_7TDP40KG8LGGOV-86" edge="1">
          <mxGeometry relative="1" as="geometry" />
        </mxCell>
        <mxCell id="OZyLh_7TDP40KG8LGGOV-14" value="Tax notice received" style="whiteSpace=wrap;html=1;fillColor=#60a917;strokeColor=#2D7600;fontColor=#ffffff;rounded=1;" parent="WIyWlLk6GJQsqaUBKTNV-1" vertex="1">
          <mxGeometry x="150" y="670" width="130" height="60" as="geometry" />
        </mxCell>
        <mxCell id="OZyLh_7TDP40KG8LGGOV-100" value="" style="edgeStyle=orthogonalEdgeStyle;rounded=0;orthogonalLoop=1;jettySize=auto;html=1;" parent="WIyWlLk6GJQsqaUBKTNV-1" source="OZyLh_7TDP40KG8LGGOV-16" target="OZyLh_7TDP40KG8LGGOV-99" edge="1">
          <mxGeometry relative="1" as="geometry" />
        </mxCell>
        <mxCell id="OZyLh_7TDP40KG8LGGOV-16" value="Not receiving texts for confirmation" style="whiteSpace=wrap;html=1;fillColor=#60a917;strokeColor=#2D7600;fontColor=#ffffff;rounded=1;" parent="WIyWlLk6GJQsqaUBKTNV-1" vertex="1">
          <mxGeometry x="150" y="842.5" width="130" height="60" as="geometry" />
        </mxCell>
        <mxCell id="OZyLh_7TDP40KG8LGGOV-28" value="" style="edgeStyle=orthogonalEdgeStyle;rounded=0;orthogonalLoop=1;jettySize=auto;html=1;exitX=1;exitY=0.5;exitDx=0;exitDy=0;" parent="WIyWlLk6GJQsqaUBKTNV-1" source="OZyLh_7TDP40KG8LGGOV-20" target="OZyLh_7TDP40KG8LGGOV-22" edge="1">
          <mxGeometry relative="1" as="geometry">
            <mxPoint x="950" y="470" as="sourcePoint" />
          </mxGeometry>
        </mxCell>
        <mxCell id="OZyLh_7TDP40KG8LGGOV-30" value="" style="edgeStyle=orthogonalEdgeStyle;rounded=0;orthogonalLoop=1;jettySize=auto;html=1;exitX=1;exitY=0.5;exitDx=0;exitDy=0;" parent="WIyWlLk6GJQsqaUBKTNV-1" source="OZyLh_7TDP40KG8LGGOV-3" target="OZyLh_7TDP40KG8LGGOV-29" edge="1">
          <mxGeometry relative="1" as="geometry">
            <mxPoint x="540" y="300" as="sourcePoint" />
          </mxGeometry>
        </mxCell>
        <mxCell id="OZyLh_7TDP40KG8LGGOV-20" value="System &amp;gt; Preferences &amp;gt; Location &amp;gt; Payroll" style="whiteSpace=wrap;html=1;fillColor=#60a917;strokeColor=#2D7600;fontColor=#ffffff;rounded=1;" parent="WIyWlLk6GJQsqaUBKTNV-1" vertex="1">
          <mxGeometry x="550" y="160" width="120" height="60" as="geometry" />
        </mxCell>
        <mxCell id="OZyLh_7TDP40KG8LGGOV-27" value="" style="edgeStyle=orthogonalEdgeStyle;rounded=0;orthogonalLoop=1;jettySize=auto;html=1;" parent="WIyWlLk6GJQsqaUBKTNV-1" source="OZyLh_7TDP40KG8LGGOV-22" target="OZyLh_7TDP40KG8LGGOV-26" edge="1">
          <mxGeometry relative="1" as="geometry" />
        </mxCell>
        <mxCell id="OZyLh_7TDP40KG8LGGOV-46" value="" style="edgeStyle=orthogonalEdgeStyle;rounded=0;orthogonalLoop=1;jettySize=auto;html=1;" parent="WIyWlLk6GJQsqaUBKTNV-1" source="OZyLh_7TDP40KG8LGGOV-22" target="OZyLh_7TDP40KG8LGGOV-45" edge="1">
          <mxGeometry relative="1" as="geometry" />
        </mxCell>
        <mxCell id="OZyLh_7TDP40KG8LGGOV-22" value="&lt;font style=&quot;font-size: 11px;&quot;&gt;Username / password correct?&lt;/font&gt;" style="rhombus;whiteSpace=wrap;html=1;fillColor=#6d8764;strokeColor=#3A5431;fontColor=#ffffff;rounded=1;" parent="WIyWlLk6GJQsqaUBKTNV-1" vertex="1">
          <mxGeometry x="700" y="140" width="100" height="100" as="geometry" />
        </mxCell>
        <mxCell id="OZyLh_7TDP40KG8LGGOV-41" style="edgeStyle=orthogonalEdgeStyle;rounded=0;orthogonalLoop=1;jettySize=auto;html=1;exitX=0;exitY=0.5;exitDx=0;exitDy=0;entryX=0.5;entryY=0;entryDx=0;entryDy=0;" parent="WIyWlLk6GJQsqaUBKTNV-1" source="OZyLh_7TDP40KG8LGGOV-26" target="OZyLh_7TDP40KG8LGGOV-29" edge="1">
          <mxGeometry relative="1" as="geometry" />
        </mxCell>
        <mxCell id="OZyLh_7TDP40KG8LGGOV-26" value="Correct data" style="whiteSpace=wrap;html=1;fillColor=#60a917;strokeColor=#2D7600;fontColor=#ffffff;rounded=1;" parent="WIyWlLk6GJQsqaUBKTNV-1" vertex="1">
          <mxGeometry x="690" y="20" width="120" height="60" as="geometry" />
        </mxCell>
        <mxCell id="OZyLh_7TDP40KG8LGGOV-32" value="" style="edgeStyle=orthogonalEdgeStyle;rounded=0;orthogonalLoop=1;jettySize=auto;html=1;" parent="WIyWlLk6GJQsqaUBKTNV-1" source="OZyLh_7TDP40KG8LGGOV-29" target="OZyLh_7TDP40KG8LGGOV-31" edge="1">
          <mxGeometry relative="1" as="geometry" />
        </mxCell>
        <mxCell id="OZyLh_7TDP40KG8LGGOV-29" value="Retry action" style="whiteSpace=wrap;html=1;fillColor=#60a917;strokeColor=#2D7600;fontColor=#ffffff;rounded=1;" parent="WIyWlLk6GJQsqaUBKTNV-1" vertex="1">
          <mxGeometry x="300" y="160" width="120" height="60" as="geometry" />
        </mxCell>
        <mxCell id="OZyLh_7TDP40KG8LGGOV-34" value="" style="edgeStyle=orthogonalEdgeStyle;rounded=0;orthogonalLoop=1;jettySize=auto;html=1;" parent="WIyWlLk6GJQsqaUBKTNV-1" source="OZyLh_7TDP40KG8LGGOV-31" target="OZyLh_7TDP40KG8LGGOV-33" edge="1">
          <mxGeometry relative="1" as="geometry" />
        </mxCell>
        <mxCell id="OZyLh_7TDP40KG8LGGOV-31" value="Error?" style="rhombus;whiteSpace=wrap;html=1;fillColor=#6d8764;strokeColor=#3A5431;fontColor=#ffffff;rounded=1;" parent="WIyWlLk6GJQsqaUBKTNV-1" vertex="1">
          <mxGeometry x="440" y="150" width="80" height="80" as="geometry" />
        </mxCell>
        <mxCell id="OZyLh_7TDP40KG8LGGOV-33" value="Close case" style="whiteSpace=wrap;html=1;fillColor=#a20025;strokeColor=#6F0000;fontColor=#ffffff;rounded=1;" parent="WIyWlLk6GJQsqaUBKTNV-1" vertex="1">
          <mxGeometry x="425" y="80" width="110" height="30" as="geometry" />
        </mxCell>
        <mxCell id="OZyLh_7TDP40KG8LGGOV-35" value="No" style="text;html=1;align=center;verticalAlign=middle;whiteSpace=wrap;rounded=0;" parent="WIyWlLk6GJQsqaUBKTNV-1" vertex="1">
          <mxGeometry x="750" y="100" width="60" height="30" as="geometry" />
        </mxCell>
        <mxCell id="OZyLh_7TDP40KG8LGGOV-36" value="Yes" style="text;html=1;align=center;verticalAlign=middle;whiteSpace=wrap;rounded=0;" parent="WIyWlLk6GJQsqaUBKTNV-1" vertex="1">
          <mxGeometry x="500" y="200" width="60" height="30" as="geometry" />
        </mxCell>
        <mxCell id="OZyLh_7TDP40KG8LGGOV-42" value="No" style="text;html=1;align=center;verticalAlign=middle;whiteSpace=wrap;rounded=0;" parent="WIyWlLk6GJQsqaUBKTNV-1" vertex="1">
          <mxGeometry x="480" y="130" width="60" height="30" as="geometry" />
        </mxCell>
        <mxCell id="OZyLh_7TDP40KG8LGGOV-47" style="edgeStyle=orthogonalEdgeStyle;rounded=0;orthogonalLoop=1;jettySize=auto;html=1;exitX=0.5;exitY=0;exitDx=0;exitDy=0;entryX=1;entryY=0.5;entryDx=0;entryDy=0;" parent="WIyWlLk6GJQsqaUBKTNV-1" source="OZyLh_7TDP40KG8LGGOV-45" target="OZyLh_7TDP40KG8LGGOV-26" edge="1">
          <mxGeometry relative="1" as="geometry" />
        </mxCell>
        <mxCell id="OZyLh_7TDP40KG8LGGOV-52" value="" style="edgeStyle=orthogonalEdgeStyle;rounded=0;orthogonalLoop=1;jettySize=auto;html=1;" parent="WIyWlLk6GJQsqaUBKTNV-1" source="OZyLh_7TDP40KG8LGGOV-45" target="OZyLh_7TDP40KG8LGGOV-57" edge="1">
          <mxGeometry relative="1" as="geometry">
            <mxPoint x="990" y="190" as="targetPoint" />
          </mxGeometry>
        </mxCell>
        <mxCell id="OZyLh_7TDP40KG8LGGOV-45" value="&lt;font style=&quot;font-size: 11px;&quot;&gt;Company code correct?&lt;/font&gt;" style="rhombus;whiteSpace=wrap;html=1;fillColor=#6d8764;strokeColor=#3A5431;fontColor=#ffffff;rounded=1;" parent="WIyWlLk6GJQsqaUBKTNV-1" vertex="1">
          <mxGeometry x="850" y="140" width="100" height="100" as="geometry" />
        </mxCell>
        <mxCell id="OZyLh_7TDP40KG8LGGOV-48" value="No" style="text;html=1;align=center;verticalAlign=middle;whiteSpace=wrap;rounded=0;" parent="WIyWlLk6GJQsqaUBKTNV-1" vertex="1">
          <mxGeometry x="900" y="100" width="60" height="30" as="geometry" />
        </mxCell>
        <mxCell id="OZyLh_7TDP40KG8LGGOV-49" value="Yes" style="text;html=1;align=center;verticalAlign=middle;whiteSpace=wrap;rounded=0;" parent="WIyWlLk6GJQsqaUBKTNV-1" vertex="1">
          <mxGeometry x="790" y="200" width="60" height="30" as="geometry" />
        </mxCell>
        <mxCell id="OZyLh_7TDP40KG8LGGOV-56" value="Yes" style="text;html=1;align=center;verticalAlign=middle;whiteSpace=wrap;rounded=0;" parent="WIyWlLk6GJQsqaUBKTNV-1" vertex="1">
          <mxGeometry x="940" y="200" width="60" height="30" as="geometry" />
        </mxCell>
        <mxCell id="OZyLh_7TDP40KG8LGGOV-57" value="Escalate to T2" style="whiteSpace=wrap;html=1;fillColor=#fa6800;strokeColor=#C73500;fontColor=#000000;rounded=1;" parent="WIyWlLk6GJQsqaUBKTNV-1" vertex="1">
          <mxGeometry x="1000" y="160" width="120" height="60" as="geometry" />
        </mxCell>
        <mxCell id="4gQK874npX7REg9NdZiY-1" style="edgeStyle=orthogonalEdgeStyle;rounded=0;orthogonalLoop=1;jettySize=auto;html=1;exitX=1;exitY=0.5;exitDx=0;exitDy=0;" edge="1" parent="WIyWlLk6GJQsqaUBKTNV-1" source="OZyLh_7TDP40KG8LGGOV-59" target="OZyLh_7TDP40KG8LGGOV-77">
          <mxGeometry relative="1" as="geometry" />
        </mxCell>
        <mxCell id="OZyLh_7TDP40KG8LGGOV-59" value="Confirm suspended account" style="whiteSpace=wrap;html=1;fillColor=#60a917;strokeColor=#2D7600;fontColor=#ffffff;rounded=1;" parent="WIyWlLk6GJQsqaUBKTNV-1" vertex="1">
          <mxGeometry x="300" y="320" width="120" height="60" as="geometry" />
        </mxCell>
        <mxCell id="4gQK874npX7REg9NdZiY-2" style="edgeStyle=orthogonalEdgeStyle;rounded=0;orthogonalLoop=1;jettySize=auto;html=1;exitX=1;exitY=0.5;exitDx=0;exitDy=0;" edge="1" parent="WIyWlLk6GJQsqaUBKTNV-1" source="OZyLh_7TDP40KG8LGGOV-61">
          <mxGeometry relative="1" as="geometry">
            <mxPoint x="470" y="390" as="targetPoint" />
          </mxGeometry>
        </mxCell>
        <mxCell id="OZyLh_7TDP40KG8LGGOV-61" value="Confirm payment date(s) &amp;amp; amount(s)" style="whiteSpace=wrap;html=1;fillColor=#60a917;strokeColor=#2D7600;fontColor=#ffffff;rounded=1;" parent="WIyWlLk6GJQsqaUBKTNV-1" vertex="1">
          <mxGeometry x="300" y="390" width="120" height="60" as="geometry" />
        </mxCell>
        <mxCell id="OZyLh_7TDP40KG8LGGOV-78" style="edgeStyle=orthogonalEdgeStyle;rounded=0;orthogonalLoop=1;jettySize=auto;html=1;exitX=1;exitY=0.5;exitDx=0;exitDy=0;" parent="WIyWlLk6GJQsqaUBKTNV-1" source="OZyLh_7TDP40KG8LGGOV-73" target="OZyLh_7TDP40KG8LGGOV-77" edge="1">
          <mxGeometry relative="1" as="geometry" />
        </mxCell>
        <mxCell id="OZyLh_7TDP40KG8LGGOV-73" value="Confirm type of amendment&lt;div&gt;(SSN, state change, etc.)&lt;/div&gt;" style="whiteSpace=wrap;html=1;fillColor=#60a917;strokeColor=#2D7600;fontColor=#ffffff;rounded=1;" parent="WIyWlLk6GJQsqaUBKTNV-1" vertex="1">
          <mxGeometry x="300" y="460" width="120" height="60" as="geometry" />
        </mxCell>
        <mxCell id="OZyLh_7TDP40KG8LGGOV-85" style="edgeStyle=orthogonalEdgeStyle;rounded=0;orthogonalLoop=1;jettySize=auto;html=1;exitX=1;exitY=0.5;exitDx=0;exitDy=0;" parent="WIyWlLk6GJQsqaUBKTNV-1" source="OZyLh_7TDP40KG8LGGOV-77" target="OZyLh_7TDP40KG8LGGOV-84" edge="1">
          <mxGeometry relative="1" as="geometry" />
        </mxCell>
        <mxCell id="OZyLh_7TDP40KG8LGGOV-77" value="Gather PRP co. name, CID, CMF, and Case #" style="whiteSpace=wrap;html=1;fillColor=#60a917;strokeColor=#2D7600;fontColor=#ffffff;rounded=1;" parent="WIyWlLk6GJQsqaUBKTNV-1" vertex="1">
          <mxGeometry x="470" y="360" width="160" height="60" as="geometry" />
        </mxCell>
        <mxCell id="OZyLh_7TDP40KG8LGGOV-84" value="Email ADP per format&lt;div&gt;&lt;b&gt;&lt;u&gt;CC ADP@lightspeeddms.com&lt;/u&gt;&lt;/b&gt;&lt;/div&gt;" style="whiteSpace=wrap;html=1;fillColor=#e3c800;strokeColor=#B09500;fontColor=#000000;rounded=1;" parent="WIyWlLk6GJQsqaUBKTNV-1" vertex="1">
          <mxGeometry x="690" y="355" width="180" height="70" as="geometry" />
        </mxCell>
        <mxCell id="OZyLh_7TDP40KG8LGGOV-89" value="" style="edgeStyle=orthogonalEdgeStyle;rounded=0;orthogonalLoop=1;jettySize=auto;html=1;exitX=0.5;exitY=1;exitDx=0;exitDy=0;entryX=0;entryY=0.5;entryDx=0;entryDy=0;" parent="WIyWlLk6GJQsqaUBKTNV-1" source="OZyLh_7TDP40KG8LGGOV-86" target="OZyLh_7TDP40KG8LGGOV-88" edge="1">
          <mxGeometry relative="1" as="geometry" />
        </mxCell>
        <mxCell id="OZyLh_7TDP40KG8LGGOV-93" style="edgeStyle=orthogonalEdgeStyle;rounded=0;orthogonalLoop=1;jettySize=auto;html=1;exitX=1;exitY=0.5;exitDx=0;exitDy=0;" parent="WIyWlLk6GJQsqaUBKTNV-1" source="OZyLh_7TDP40KG8LGGOV-86" target="OZyLh_7TDP40KG8LGGOV-92" edge="1">
          <mxGeometry relative="1" as="geometry" />
        </mxCell>
        <mxCell id="OZyLh_7TDP40KG8LGGOV-86" value="From the government?" style="rhombus;whiteSpace=wrap;html=1;fillColor=#6d8764;strokeColor=#3A5431;fontColor=#ffffff;rounded=1;" parent="WIyWlLk6GJQsqaUBKTNV-1" vertex="1">
          <mxGeometry x="300" y="660" width="80" height="80" as="geometry" />
        </mxCell>
        <mxCell id="OZyLh_7TDP40KG8LGGOV-88" value="Client forwards a copy to taxnoticesetup@adp.com" style="whiteSpace=wrap;html=1;fillColor=#e3c800;strokeColor=#B09500;fontColor=#000000;rounded=1;" parent="WIyWlLk6GJQsqaUBKTNV-1" vertex="1">
          <mxGeometry x="425" y="750" width="180" height="60" as="geometry" />
        </mxCell>
        <mxCell id="OZyLh_7TDP40KG8LGGOV-95" style="edgeStyle=orthogonalEdgeStyle;rounded=0;orthogonalLoop=1;jettySize=auto;html=1;exitX=1;exitY=0.5;exitDx=0;exitDy=0;entryX=0.5;entryY=1;entryDx=0;entryDy=0;" parent="WIyWlLk6GJQsqaUBKTNV-1" source="OZyLh_7TDP40KG8LGGOV-92" target="OZyLh_7TDP40KG8LGGOV-94" edge="1">
          <mxGeometry relative="1" as="geometry" />
        </mxCell>
        <mxCell id="OZyLh_7TDP40KG8LGGOV-92" value="Confirm type of notice" style="whiteSpace=wrap;html=1;fillColor=#60a917;strokeColor=#2D7600;fontColor=#ffffff;rounded=1;" parent="WIyWlLk6GJQsqaUBKTNV-1" vertex="1">
          <mxGeometry x="440" y="670" width="140" height="60" as="geometry" />
        </mxCell>
        <mxCell id="OZyLh_7TDP40KG8LGGOV-94" value="Escalate to T2" style="whiteSpace=wrap;html=1;fillColor=#fa6800;strokeColor=#C73500;fontColor=#000000;rounded=1;" parent="WIyWlLk6GJQsqaUBKTNV-1" vertex="1">
          <mxGeometry x="580" y="600" width="120" height="60" as="geometry" />
        </mxCell>
        <mxCell id="OZyLh_7TDP40KG8LGGOV-96" value="Yes" style="text;html=1;align=center;verticalAlign=middle;whiteSpace=wrap;rounded=0;" parent="WIyWlLk6GJQsqaUBKTNV-1" vertex="1">
          <mxGeometry x="340" y="750" width="60" height="30" as="geometry" />
        </mxCell>
        <mxCell id="OZyLh_7TDP40KG8LGGOV-98" value="No" style="text;html=1;align=center;verticalAlign=middle;whiteSpace=wrap;rounded=0;" parent="WIyWlLk6GJQsqaUBKTNV-1" vertex="1">
          <mxGeometry x="370" y="670" width="60" height="30" as="geometry" />
        </mxCell>
        <mxCell id="OZyLh_7TDP40KG8LGGOV-105" value="" style="edgeStyle=orthogonalEdgeStyle;rounded=0;orthogonalLoop=1;jettySize=auto;html=1;" parent="WIyWlLk6GJQsqaUBKTNV-1" source="OZyLh_7TDP40KG8LGGOV-99" target="OZyLh_7TDP40KG8LGGOV-104" edge="1">
          <mxGeometry relative="1" as="geometry" />
        </mxCell>
        <mxCell id="OZyLh_7TDP40KG8LGGOV-99" value="&lt;div&gt;Instruct the client to send the word START to both 709-62 and 437-96.&lt;/div&gt;" style="whiteSpace=wrap;html=1;fillColor=#60a917;strokeColor=#2D7600;fontColor=#ffffff;rounded=1;" parent="WIyWlLk6GJQsqaUBKTNV-1" vertex="1">
          <mxGeometry x="310" y="832.5" width="120" height="80" as="geometry" />
        </mxCell>
        <mxCell id="OZyLh_7TDP40KG8LGGOV-107" value="" style="edgeStyle=orthogonalEdgeStyle;rounded=0;orthogonalLoop=1;jettySize=auto;html=1;" parent="WIyWlLk6GJQsqaUBKTNV-1" source="OZyLh_7TDP40KG8LGGOV-104" target="OZyLh_7TDP40KG8LGGOV-106" edge="1">
          <mxGeometry relative="1" as="geometry" />
        </mxCell>
        <mxCell id="OZyLh_7TDP40KG8LGGOV-104" value="Retry confirmation" style="whiteSpace=wrap;html=1;fillColor=#60a917;strokeColor=#2D7600;fontColor=#ffffff;rounded=1;" parent="WIyWlLk6GJQsqaUBKTNV-1" vertex="1">
          <mxGeometry x="455" y="842.5" width="120" height="60" as="geometry" />
        </mxCell>
        <mxCell id="OZyLh_7TDP40KG8LGGOV-110" value="" style="edgeStyle=orthogonalEdgeStyle;rounded=0;orthogonalLoop=1;jettySize=auto;html=1;" parent="WIyWlLk6GJQsqaUBKTNV-1" source="OZyLh_7TDP40KG8LGGOV-106" target="OZyLh_7TDP40KG8LGGOV-109" edge="1">
          <mxGeometry relative="1" as="geometry" />
        </mxCell>
        <mxCell id="OZyLh_7TDP40KG8LGGOV-112" value="" style="edgeStyle=orthogonalEdgeStyle;rounded=0;orthogonalLoop=1;jettySize=auto;html=1;" parent="WIyWlLk6GJQsqaUBKTNV-1" source="OZyLh_7TDP40KG8LGGOV-106" target="OZyLh_7TDP40KG8LGGOV-111" edge="1">
          <mxGeometry relative="1" as="geometry" />
        </mxCell>
        <mxCell id="OZyLh_7TDP40KG8LGGOV-106" value="Response?" style="rhombus;whiteSpace=wrap;html=1;fillColor=#6d8764;strokeColor=#3A5431;fontColor=#ffffff;rounded=1;" parent="WIyWlLk6GJQsqaUBKTNV-1" vertex="1">
          <mxGeometry x="600" y="832.5" width="80" height="80" as="geometry" />
        </mxCell>
        <mxCell id="OZyLh_7TDP40KG8LGGOV-109" value="Case closed" style="whiteSpace=wrap;html=1;fillColor=#e51400;strokeColor=#B20000;fontColor=#ffffff;rounded=1;" parent="WIyWlLk6GJQsqaUBKTNV-1" vertex="1">
          <mxGeometry x="590" y="972.5" width="100" height="30" as="geometry" />
        </mxCell>
        <mxCell id="OZyLh_7TDP40KG8LGGOV-111" value="Client must contact their mobile provider (Verizon, T-Mobile, etc.) Customer Service to remove the Short Code Block feature from their account.&lt;div&gt;&lt;b&gt;And reboot their device afterwards.&lt;/b&gt;&lt;/div&gt;" style="whiteSpace=wrap;html=1;fillColor=#e51400;strokeColor=#B20000;fontColor=#ffffff;rounded=1;" parent="WIyWlLk6GJQsqaUBKTNV-1" vertex="1">
          <mxGeometry x="730" y="810" width="210" height="125" as="geometry" />
        </mxCell>
        <mxCell id="OZyLh_7TDP40KG8LGGOV-113" value="No" style="text;html=1;align=center;verticalAlign=middle;whiteSpace=wrap;rounded=0;" parent="WIyWlLk6GJQsqaUBKTNV-1" vertex="1">
          <mxGeometry x="670" y="842.5" width="60" height="30" as="geometry" />
        </mxCell>
        <mxCell id="OZyLh_7TDP40KG8LGGOV-114" value="Yes" style="text;html=1;align=center;verticalAlign=middle;whiteSpace=wrap;rounded=0;" parent="WIyWlLk6GJQsqaUBKTNV-1" vertex="1">
          <mxGeometry x="600" y="922.5" width="40" height="30" as="geometry" />
        </mxCell>
        <mxCell id="OZyLh_7TDP40KG8LGGOV-130" value="" style="edgeStyle=orthogonalEdgeStyle;rounded=0;orthogonalLoop=1;jettySize=auto;html=1;" parent="WIyWlLk6GJQsqaUBKTNV-1" source="OZyLh_7TDP40KG8LGGOV-121" target="OZyLh_7TDP40KG8LGGOV-129" edge="1">
          <mxGeometry relative="1" as="geometry" />
        </mxCell>
        <mxCell id="OZyLh_7TDP40KG8LGGOV-121" value="Email / Phone number in use when it doesn&#39;t exist anywhere" style="whiteSpace=wrap;html=1;fillColor=#60a917;strokeColor=#2D7600;fontColor=#ffffff;rounded=1;" parent="WIyWlLk6GJQsqaUBKTNV-1" vertex="1">
          <mxGeometry x="150" y="240" width="130" height="60" as="geometry" />
        </mxCell>
        <mxCell id="4gQK874npX7REg9NdZiY-0" style="edgeStyle=orthogonalEdgeStyle;rounded=0;orthogonalLoop=1;jettySize=auto;html=1;exitX=1;exitY=0.5;exitDx=0;exitDy=0;" edge="1" parent="WIyWlLk6GJQsqaUBKTNV-1" source="OZyLh_7TDP40KG8LGGOV-129" target="OZyLh_7TDP40KG8LGGOV-77">
          <mxGeometry relative="1" as="geometry" />
        </mxCell>
        <mxCell id="OZyLh_7TDP40KG8LGGOV-129" value="Confirm if employee access account or admin account" style="whiteSpace=wrap;html=1;fillColor=#60a917;strokeColor=#2D7600;fontColor=#ffffff;rounded=1;" parent="WIyWlLk6GJQsqaUBKTNV-1" vertex="1">
          <mxGeometry x="300" y="240" width="120" height="60" as="geometry" />
        </mxCell>
        <mxCell id="OZyLh_7TDP40KG8LGGOV-135" style="edgeStyle=orthogonalEdgeStyle;rounded=0;orthogonalLoop=1;jettySize=auto;html=1;exitX=1;exitY=0.5;exitDx=0;exitDy=0;" parent="WIyWlLk6GJQsqaUBKTNV-1" source="OZyLh_7TDP40KG8LGGOV-132" target="OZyLh_7TDP40KG8LGGOV-134" edge="1">
          <mxGeometry relative="1" as="geometry" />
        </mxCell>
        <mxCell id="OZyLh_7TDP40KG8LGGOV-132" value="Delinquent account" style="whiteSpace=wrap;html=1;fillColor=#60a917;strokeColor=#2D7600;fontColor=#ffffff;rounded=1;" parent="WIyWlLk6GJQsqaUBKTNV-1" vertex="1">
          <mxGeometry x="150" y="530" width="130" height="60" as="geometry" />
        </mxCell>
        <mxCell id="OZyLh_7TDP40KG8LGGOV-137" value="" style="edgeStyle=orthogonalEdgeStyle;rounded=0;orthogonalLoop=1;jettySize=auto;html=1;" parent="WIyWlLk6GJQsqaUBKTNV-1" source="OZyLh_7TDP40KG8LGGOV-134" target="OZyLh_7TDP40KG8LGGOV-136" edge="1">
          <mxGeometry relative="1" as="geometry" />
        </mxCell>
        <mxCell id="OZyLh_7TDP40KG8LGGOV-134" value="Dashboard &amp;gt; Implementation &amp;gt; ADP Code Details" style="whiteSpace=wrap;html=1;fillColor=#60a917;strokeColor=#2D7600;fontColor=#ffffff;rounded=1;" parent="WIyWlLk6GJQsqaUBKTNV-1" vertex="1">
          <mxGeometry x="300" y="530" width="120" height="60" as="geometry" />
        </mxCell>
        <mxCell id="OZyLh_7TDP40KG8LGGOV-139" value="" style="edgeStyle=orthogonalEdgeStyle;rounded=0;orthogonalLoop=1;jettySize=auto;html=1;" parent="WIyWlLk6GJQsqaUBKTNV-1" source="OZyLh_7TDP40KG8LGGOV-136" target="OZyLh_7TDP40KG8LGGOV-138" edge="1">
          <mxGeometry relative="1" as="geometry" />
        </mxCell>
        <mxCell id="OZyLh_7TDP40KG8LGGOV-144" style="edgeStyle=orthogonalEdgeStyle;rounded=0;orthogonalLoop=1;jettySize=auto;html=1;exitX=0.5;exitY=1;exitDx=0;exitDy=0;" parent="WIyWlLk6GJQsqaUBKTNV-1" source="OZyLh_7TDP40KG8LGGOV-136" target="OZyLh_7TDP40KG8LGGOV-94" edge="1">
          <mxGeometry relative="1" as="geometry" />
        </mxCell>
        <mxCell id="OZyLh_7TDP40KG8LGGOV-136" value="NSF hold?" style="rhombus;whiteSpace=wrap;html=1;fillColor=#6d8764;strokeColor=#3A5431;fontColor=#ffffff;rounded=1;" parent="WIyWlLk6GJQsqaUBKTNV-1" vertex="1">
          <mxGeometry x="455" y="520" width="80" height="80" as="geometry" />
        </mxCell>
        <mxCell id="OZyLh_7TDP40KG8LGGOV-138" value="&lt;div&gt;&amp;nbsp;855-789-6170&lt;/div&gt;&lt;div&gt;&amp;nbsp;option 3&amp;nbsp;&lt;/div&gt;&lt;div&gt;ask for payment svcs&lt;/div&gt;" style="whiteSpace=wrap;html=1;fillColor=#60a917;strokeColor=#2D7600;fontColor=#ffffff;rounded=1;" parent="WIyWlLk6GJQsqaUBKTNV-1" vertex="1">
          <mxGeometry x="580" y="530" width="120" height="60" as="geometry" />
        </mxCell>
        <mxCell id="OZyLh_7TDP40KG8LGGOV-145" value="No" style="text;html=1;align=center;verticalAlign=middle;whiteSpace=wrap;rounded=0;" parent="WIyWlLk6GJQsqaUBKTNV-1" vertex="1">
          <mxGeometry x="480" y="600" width="60" height="30" as="geometry" />
        </mxCell>
        <mxCell id="OZyLh_7TDP40KG8LGGOV-146" value="Yes" style="text;html=1;align=center;verticalAlign=middle;whiteSpace=wrap;rounded=0;" parent="WIyWlLk6GJQsqaUBKTNV-1" vertex="1">
          <mxGeometry x="520" y="530" width="60" height="30" as="geometry" />
        </mxCell>
        <mxCell id="4gQK874npX7REg9NdZiY-10" value="1A" style="text;html=1;align=center;verticalAlign=middle;whiteSpace=wrap;rounded=0;" vertex="1" parent="WIyWlLk6GJQsqaUBKTNV-1">
          <mxGeometry x="60" y="175" width="80" height="30" as="geometry" />
        </mxCell>
        <mxCell id="4gQK874npX7REg9NdZiY-11" value="2A" style="text;html=1;align=center;verticalAlign=middle;whiteSpace=wrap;rounded=0;" vertex="1" parent="WIyWlLk6GJQsqaUBKTNV-1">
          <mxGeometry x="60" y="255" width="80" height="30" as="geometry" />
        </mxCell>
        <mxCell id="4gQK874npX7REg9NdZiY-12" value="3A" style="text;html=1;align=center;verticalAlign=middle;whiteSpace=wrap;rounded=0;" vertex="1" parent="WIyWlLk6GJQsqaUBKTNV-1">
          <mxGeometry x="60" y="335" width="80" height="30" as="geometry" />
        </mxCell>
        <mxCell id="4gQK874npX7REg9NdZiY-13" value="4A&lt;span style=&quot;color: rgba(0, 0, 0, 0); font-family: monospace; font-size: 0px; text-align: start; text-wrap: nowrap;&quot;&gt;%3CmxGraphModel%3E%3Croot%3E%3CmxCell%20id%3D%220%22%2F%3E%3CmxCell%20id%3D%221%22%20parent%3D%220%22%2F%3E%3CmxCell%20id%3D%222%22%20value%3D%222A%22%20style%3D%22text%3Bhtml%3D1%3Balign%3Dcenter%3BverticalAlign%3Dmiddle%3BwhiteSpace%3Dwrap%3Brounded%3D0%3B%22%20vertex%3D%221%22%20parent%3D%221%22%3E%3CmxGeometry%20x%3D%2260%22%20y%3D%22255%22%20width%3D%2280%22%20height%3D%2230%22%20as%3D%22geometry%22%2F%3E%3C%2FmxCell%3E%3C%2Froot%3E%3C%2FmxGraphModel%3E&lt;/span&gt;" style="text;html=1;align=center;verticalAlign=middle;whiteSpace=wrap;rounded=0;" vertex="1" parent="WIyWlLk6GJQsqaUBKTNV-1">
          <mxGeometry x="60" y="405" width="80" height="30" as="geometry" />
        </mxCell>
        <mxCell id="4gQK874npX7REg9NdZiY-14" value="5A" style="text;html=1;align=center;verticalAlign=middle;whiteSpace=wrap;rounded=0;" vertex="1" parent="WIyWlLk6GJQsqaUBKTNV-1">
          <mxGeometry x="60" y="475" width="80" height="30" as="geometry" />
        </mxCell>
        <mxCell id="4gQK874npX7REg9NdZiY-15" value="6A" style="text;html=1;align=center;verticalAlign=middle;whiteSpace=wrap;rounded=0;" vertex="1" parent="WIyWlLk6GJQsqaUBKTNV-1">
          <mxGeometry x="60" y="545" width="80" height="30" as="geometry" />
        </mxCell>
        <mxCell id="4gQK874npX7REg9NdZiY-16" value="7A" style="text;html=1;align=center;verticalAlign=middle;whiteSpace=wrap;rounded=0;" vertex="1" parent="WIyWlLk6GJQsqaUBKTNV-1">
          <mxGeometry x="60" y="685" width="80" height="30" as="geometry" />
        </mxCell>
        <mxCell id="4gQK874npX7REg9NdZiY-18" value="7A" style="text;html=1;align=center;verticalAlign=middle;whiteSpace=wrap;rounded=0;" vertex="1" parent="WIyWlLk6GJQsqaUBKTNV-1">
          <mxGeometry x="60" y="685" width="80" height="30" as="geometry" />
        </mxCell>
        <mxCell id="4gQK874npX7REg9NdZiY-19" value="8A" style="text;html=1;align=center;verticalAlign=middle;whiteSpace=wrap;rounded=0;" vertex="1" parent="WIyWlLk6GJQsqaUBKTNV-1">
          <mxGeometry x="60" y="857.5" width="80" height="30" as="geometry" />
        </mxCell>
      </root>
    </mxGraphModel>
  </diagram>
</mxfile>
